<svg width="56" height="69" viewBox="0 0 56 69" fill="none" xmlns="http://www.w3.org/2000/svg">
<line y1="68" x2="56" y2="68" stroke="#41B24F" stroke-width="2"/>
<path fill-rule="evenodd" clip-rule="evenodd" d="M1.02808 36.2353V26.4688L4.95442 27.205L4.9761 27.2096C5.28605 27.2748 5.54196 27.331 5.73532 27.3771C5.83052 27.3997 5.92613 27.4236 6.01234 27.4478C6.01234 27.4478 6.01536 27.4486 6.01768 27.4492C6.02664 27.4517 6.04344 27.4563 6.06635 27.463L7.54134 27.7233C7.85668 27.7752 8.6047 27.8648 9.85371 27.9929C10.7449 28.0819 11.6536 28.1267 12.5801 28.1267C14.4187 28.1267 15.172 27.8783 15.3463 27.7674L15.3631 27.7567L15.3802 27.7463L15.3817 27.7453C15.3831 27.7435 15.3857 27.74 15.3892 27.7343C15.3946 27.7255 15.4031 27.7102 15.4134 27.6865C15.4573 27.5853 15.5241 27.3512 15.5241 26.9107V23.4595C15.5079 23.451 15.4893 23.4418 15.4683 23.432C15.0598 23.2419 14.2001 23.0547 12.6761 23.0547H5.01208V14.2547H12.6761C13.7397 14.2547 14.1756 14.0498 14.304 13.9559C14.3472 13.9244 14.3569 13.9066 14.3664 13.8857C14.381 13.8537 14.4201 13.7481 14.4201 13.5187V10.4947C14.4201 10.3352 14.4085 10.224 14.3963 10.1524C14.3474 10.1339 14.2771 10.1112 14.1808 10.0883L14.1699 10.0857L14.159 10.083C13.7638 9.98417 13.0031 9.90269 11.7641 9.90269C10.0462 9.90269 7.31381 10.0857 3.51674 10.4686L1.31608 10.6905V1.61467L3.18401 1.49105C7.53556 1.20308 10.6669 1.05469 12.5321 1.05469C16.492 1.05469 19.7167 1.49321 21.8941 2.61976C23.0925 3.2313 24.0588 4.11822 24.7084 5.2874C25.3503 6.44281 25.6201 7.75969 25.6201 9.15069V14.2867C25.6201 15.5706 25.237 16.7575 24.4569 17.7647C24.7587 18.0058 25.0385 18.266 25.2933 18.5469C26.3341 19.694 26.8681 21.0902 26.8681 22.6387V27.7267C26.8681 30.8863 25.7434 33.5233 23.2001 35.1297C20.8877 36.5901 17.5384 37.1667 13.4921 37.1667C10.6991 37.1667 7.12906 36.9182 2.80558 36.4343L1.02808 36.2353ZM22.7561 16.6867C23.3321 16.0147 23.6201 15.2147 23.6201 14.2867V9.15069C23.6201 6.87869 22.7401 5.29469 20.9801 4.39869C19.2521 3.50269 16.4361 3.05469 12.5321 3.05469C10.7401 3.05469 7.66808 3.19869 3.31608 3.48669V8.47869C4.01628 8.40808 4.68295 8.34396 5.31608 8.28634C8.12614 8.03057 10.2755 7.90269 11.7641 7.90269C13.0441 7.90269 14.0041 7.98269 14.6441 8.14269C15.3161 8.30269 15.7801 8.57469 16.0361 8.95869C16.2921 9.31069 16.4201 9.82269 16.4201 10.4947V13.5187C16.4201 15.3427 15.1721 16.2547 12.6761 16.2547H7.01208V21.0547H12.6761C15.9081 21.0547 17.5241 21.8067 17.5241 23.3107V26.9107C17.5241 28.1587 17.1561 29.0067 16.4201 29.4547C15.7161 29.9027 14.4361 30.1267 12.5801 30.1267C11.5881 30.1267 10.6121 30.0787 9.65208 29.9827C8.40408 29.8547 7.58808 29.7587 7.20408 29.6947L5.57208 29.4067C5.52681 29.3841 5.34548 29.3374 5.02808 29.2668C4.89672 29.2375 4.74205 29.2042 4.56408 29.1667L3.02808 28.8787V34.4467C7.31608 34.9267 10.8041 35.1667 13.4921 35.1667C17.4281 35.1667 20.3081 34.5907 22.1321 33.4387C23.9561 32.2867 24.8681 30.3827 24.8681 27.7267V22.6387C24.8681 21.2185 24.2314 20.0515 22.9581 19.1378C22.3378 18.6926 21.5665 18.3076 20.6441 17.9827C21.5038 17.7598 22.2051 17.331 22.748 16.6962C22.7507 16.693 22.7534 16.6899 22.7561 16.6867ZM46.6158 8.81469C46.8078 9.29469 46.9038 10.0787 46.9038 11.1667V27.0547C46.9038 28.1427 46.8078 28.9267 46.6158 29.4067C46.4238 29.8867 46.0398 30.2227 45.4638 30.4147C44.8878 30.5747 43.9278 30.6547 42.5838 30.6547C41.2078 30.6547 40.2158 30.5747 39.6078 30.4147C39.0318 30.2227 38.6478 29.8867 38.4558 29.4067C38.2638 28.9267 38.1678 28.1427 38.1678 27.0547V11.1667C38.1678 10.0787 38.2638 9.29469 38.4558 8.81469C38.6478 8.33469 39.0318 8.01469 39.6078 7.85469C40.2158 7.66269 41.2078 7.56669 42.5838 7.56669C43.9278 7.56669 44.8878 7.66269 45.4638 7.85469C46.0398 8.01469 46.4238 8.33469 46.6158 8.81469ZM40.2732 28.5153C40.2572 28.4395 40.2403 28.3407 40.225 28.2156C40.1898 27.9279 40.1678 27.5454 40.1678 27.0547V11.1667C40.1678 10.676 40.1898 10.2935 40.225 10.0058C40.2378 9.90144 40.2516 9.81541 40.2652 9.74575C40.5903 9.65744 41.3096 9.56669 42.5838 9.56669C43.8662 9.56669 44.5418 9.66381 44.8061 9.74404C44.8198 9.814 44.8338 9.90058 44.8467 10.0058C44.8819 10.2935 44.9038 10.676 44.9038 11.1667V27.0547C44.9038 27.5454 44.8819 27.9279 44.8467 28.2156C44.8311 28.3424 44.8141 28.4421 44.7978 28.5183C44.4455 28.589 43.7476 28.6547 42.5838 28.6547C41.4042 28.6547 40.6689 28.5908 40.2732 28.5153Z" fill="#41B24F"/>
<path d="M53.6157 16.5108C53.6157 17.0631 54.0634 17.5108 54.6157 17.5108C55.168 17.5108 55.6157 17.0631 55.6157 16.5108H53.6157ZM55.6157 23.6865C55.6157 23.1342 55.168 22.6865 54.6157 22.6865C54.0634 22.6865 53.6157 23.1342 53.6157 23.6865H55.6157ZM41.6157 2.68652H43.6157V0.686523H41.6157V2.68652ZM43.6157 35.6865H41.6157V37.6865H43.6157V35.6865ZM31.6157 25.6865V12.6865H29.6157V25.6865H31.6157ZM53.6157 12.6865V16.5108H55.6157V12.6865H53.6157ZM53.6157 23.6865V25.6865H55.6157V23.6865H53.6157ZM41.6157 35.6865C36.0929 35.6865 31.6157 31.2094 31.6157 25.6865H29.6157C29.6157 32.3139 34.9883 37.6865 41.6157 37.6865V35.6865ZM43.6157 37.6865C50.2431 37.6865 55.6157 32.3139 55.6157 25.6865H53.6157C53.6157 31.2094 49.1386 35.6865 43.6157 35.6865V37.6865ZM43.6157 2.68652C49.1386 2.68652 53.6157 7.16368 53.6157 12.6865H55.6157C55.6157 6.05911 50.2431 0.686523 43.6157 0.686523V2.68652ZM41.6157 0.686523C34.9883 0.686523 29.6157 6.05911 29.6157 12.6865H31.6157C31.6157 7.16368 36.0929 2.68652 41.6157 2.68652V0.686523Z" fill="#41B24F"/>
</svg>
