<svg width="56" height="75" viewBox="0 0 56 75" fill="none" xmlns="http://www.w3.org/2000/svg">
<line y1="74" x2="56" y2="74" stroke="#41B24F" stroke-width="2"/>
<path d="M26.5087 3.05469C24.0366 3.05469 22.0281 5.06317 22.0281 7.53534C22.0281 10.0075 24.0366 12.0211 26.5087 12.0211C28.9809 12.0211 30.9894 10.0075 30.9894 7.53534C30.9919 5.06317 28.9809 3.05469 26.5087 3.05469Z" stroke="#41B24F" stroke-width="2" stroke-miterlimit="10"/>
<path d="M39.0188 29.3814C38.93 28.8363 38.4162 28.4663 37.8711 28.5551C37.326 28.6438 36.956 29.1577 37.0448 29.7028L39.0188 29.3814ZM40.7909 46.4861L39.8039 46.6468L39.809 46.678L39.816 46.7088L40.7909 46.4861ZM39.9557 49.9855L40.7368 50.61L40.737 50.6098L39.9557 49.9855ZM32.6084 48.5612L31.6224 48.728L31.6328 48.7898L31.651 48.8499L32.6084 48.5612ZM30.0693 33.5547L31.0553 33.3879C30.9722 32.8967 30.5403 32.5416 30.0423 32.5551C29.5443 32.5685 29.1322 32.9465 29.0758 33.4414L30.0693 33.5547ZM28.4095 48.1154L29.3898 48.3129L29.3982 48.2711L29.4031 48.2287L28.4095 48.1154ZM20.9597 50.2033L20.224 50.8806L20.225 50.8817L20.9597 50.2033ZM19.853 46.9779L20.8494 47.0624L20.8494 47.062L19.853 46.9779ZM20.9366 39.5102L19.9521 39.3347L19.9521 39.3348L20.9366 39.5102ZM21.5435 23.9129L20.5573 24.0785L20.5575 24.0794L21.5435 23.9129ZM20.2114 22.7319L20.191 23.7317L20.1919 23.7317L20.2114 22.7319ZM12.5105 18.6509L11.7124 19.2534L11.7125 19.2536L12.5105 18.6509ZM13.0357 6.90231L12.1418 6.454L12.1417 6.45418L13.0357 6.90231ZM17.5855 5.39083L18.0338 4.49695L18.0322 4.49613L17.5855 5.39083ZM19.097 9.94322L19.9905 10.3923L19.9911 10.391L19.097 9.94322ZM18.3771 14.0293L17.4442 14.3896L17.7209 15.1061L18.4846 15.0236L18.3771 14.0293ZM18.7306 13.9679L18.9332 14.9471L18.934 14.947L18.7306 13.9679ZM23.6058 15.0464L23.1319 15.927L23.3615 16.0505L23.6221 16.0463L23.6058 15.0464ZM32.4185 13.8346L32.1153 12.8817L32.1083 12.884L32.4185 13.8346ZM32.7541 13.2762L33.6889 13.6314L33.6902 13.628L32.7541 13.2762ZM35.6388 10.7297L35.4274 9.75229L35.4264 9.75251L35.6388 10.7297ZM37.0811 9.96371L38.033 10.2701L38.0347 10.2648L37.0811 9.96371ZM36.5892 8.8903L35.854 9.56816L35.8549 9.56916L36.5892 8.8903ZM34.6243 7.13288L34.0134 7.92459L34.0144 7.92541L34.6243 7.13288ZM34.0043 2.37811L33.2121 1.76787L33.2118 1.76827L34.0043 2.37811ZM38.7591 1.75814L38.1475 2.54934L38.1493 2.55068L38.7591 1.75814ZM44.5693 12.9124L45.5559 13.0756L45.556 13.075L44.5693 12.9124ZM36.8351 20.9822L36.5131 20.0354L36.5129 20.0355L36.8351 20.9822ZM36.3663 21.5688L35.3817 21.394L35.3505 21.5697L35.382 21.7453L36.3663 21.5688ZM36.0968 25.7312C36.1943 26.2748 36.714 26.6365 37.2576 26.539C37.8012 26.4415 38.1629 25.9218 38.0654 25.3782L36.0968 25.7312ZM37.0448 29.7028L39.8039 46.6468L41.7779 46.3254L39.0188 29.3814L37.0448 29.7028ZM39.816 46.7088C40.0171 47.5893 39.7959 48.5835 39.1745 49.3613L40.737 50.6098C41.7244 49.3739 42.1077 47.7602 41.7658 46.2634L39.816 46.7088ZM39.1747 49.3611C38.558 50.1324 37.6417 50.5713 36.6561 50.5713V52.5713C38.2477 52.5713 39.7395 51.8574 40.7368 50.61L39.1747 49.3611ZM36.6561 50.5713C35.22 50.5713 33.9817 49.6518 33.5658 48.2724L31.651 48.8499C32.3212 51.0725 34.3365 52.5713 36.6561 52.5713V50.5713ZM33.5944 48.3943L31.0553 33.3879L29.0834 33.7215L31.6224 48.728L33.5944 48.3943ZM29.0758 33.4414L27.416 48.0021L29.4031 48.2287L31.0629 33.668L29.0758 33.4414ZM27.4292 47.9179C27.1116 49.4942 25.7723 50.5713 24.2568 50.5713V52.5713C26.7428 52.5713 28.8877 50.8048 29.3898 48.3129L27.4292 47.9179ZM24.2568 50.5713C23.1506 50.5713 22.2939 50.1742 21.6944 49.5249L20.225 50.8817C21.2292 51.9693 22.6321 52.5713 24.2568 52.5713V50.5713ZM21.6954 49.526C21.0823 48.86 20.7733 47.9601 20.8494 47.0624L18.8565 46.8935C18.7328 48.3527 19.2334 49.8045 20.224 50.8806L21.6954 49.526ZM20.8494 47.062C21.0653 44.5016 21.4949 42.0783 21.9211 39.6855L19.9521 39.3348C19.5278 41.7173 19.0813 44.2281 18.8565 46.8939L20.8494 47.062ZM21.9211 39.6857C22.8342 34.5628 23.7711 31.0984 22.5296 23.7464L20.5575 24.0794C21.7343 31.0481 20.8682 34.1948 19.9521 39.3347L21.9211 39.6857ZM22.5297 23.7473C22.3412 22.6246 21.393 21.7547 20.2308 21.7321L20.1919 23.7317C20.3466 23.7347 20.5205 23.8589 20.5573 24.0785L22.5297 23.7473ZM20.2318 21.7321C17.6678 21.6799 14.9948 20.2812 13.3085 18.0482L11.7125 19.2536C13.7409 21.9394 16.9704 23.6661 20.191 23.7317L20.2318 21.7321ZM13.3086 18.0484C11.5125 15.6694 11.507 12.1833 13.9296 7.35045L12.1417 6.45418C9.58929 11.5459 9.23022 15.9657 11.7124 19.2534L13.3086 18.0484ZM13.9296 7.35063C14.5177 6.17794 15.9548 5.69444 17.1388 6.28553L18.0322 4.49613C15.8602 3.41178 13.224 4.2963 12.1418 6.454L13.9296 7.35063ZM17.1372 6.28471C18.3138 6.87483 18.7935 8.31597 18.2028 9.49545L19.9911 10.391C21.0759 8.2247 20.1978 5.58227 18.0338 4.49695L17.1372 6.28471ZM18.2035 9.49411C17.6641 10.5672 17.4015 11.5724 17.3048 12.4005C17.2125 13.1905 17.2609 13.9147 17.4442 14.3896L19.31 13.6691C19.3124 13.6754 19.304 13.6545 19.2933 13.5978C19.283 13.5439 19.2729 13.4697 19.2664 13.3752C19.2533 13.1859 19.256 12.9345 19.2913 12.6326C19.3617 12.0299 19.5589 11.2509 19.9905 10.3923L18.2035 9.49411ZM18.4846 15.0236C18.6317 15.0077 18.7832 14.9782 18.9332 14.9471L18.528 12.9886C18.3809 13.019 18.3121 13.0305 18.2696 13.0351L18.4846 15.0236ZM18.934 14.947C19.4397 14.842 19.8766 14.7866 20.4606 14.8836C21.0678 14.9844 21.895 15.2613 23.1319 15.927L24.0797 14.1658C22.7317 13.4404 21.6888 13.0602 20.7883 12.9106C19.8647 12.7572 19.1565 12.8581 18.5273 12.9888L18.934 14.947ZM23.6221 16.0463C27.2884 15.9864 30.2841 15.5831 32.7288 14.7853L32.1083 12.884C29.9212 13.5977 27.1425 13.9885 23.5895 14.0465L23.6221 16.0463ZM32.7217 14.7876C32.7294 14.7851 32.8833 14.7422 33.0365 14.6425C33.2108 14.5291 33.3237 14.3892 33.398 14.2729C33.5107 14.0967 33.6028 13.8581 33.6889 13.6314L31.8194 12.9209C31.772 13.0456 31.7401 13.1255 31.7174 13.178C31.6921 13.2365 31.6921 13.2283 31.7132 13.1953C31.7421 13.1501 31.8146 13.0515 31.9458 12.9661C32.0056 12.9272 32.058 12.9039 32.0901 12.8912C32.1152 12.8813 32.1353 12.8754 32.1153 12.8817L32.7217 14.7876ZM33.6902 13.628C33.838 13.2348 33.9824 12.8698 34.2722 12.539C34.5434 12.2296 34.9965 11.8926 35.8511 11.7069L35.4264 9.75251C34.1829 10.0228 33.341 10.5671 32.768 11.2209C32.2138 11.8534 31.9649 12.5336 31.8181 12.9244L33.6902 13.628ZM35.8501 11.7071C36.399 11.5884 36.8492 11.4204 37.1979 11.2139C37.505 11.0321 37.8849 10.7301 38.033 10.2701L36.1292 9.65735C36.1731 9.52096 36.2382 9.45517 36.2424 9.45086C36.2523 9.44072 36.2375 9.4583 36.179 9.49293C36.0615 9.5625 35.8264 9.66603 35.4274 9.75229L35.8501 11.7071ZM38.0347 10.2648C38.1851 9.78836 38.0359 9.33793 37.9146 9.07269C37.7754 8.76802 37.566 8.47373 37.3235 8.21144L35.8549 9.56916C35.989 9.71421 36.064 9.83493 36.0957 9.90429C36.1113 9.93828 36.1073 9.9401 36.1027 9.91164C36.0985 9.88622 36.0866 9.79205 36.1275 9.66258L38.0347 10.2648ZM37.3244 8.21244C36.7616 7.60208 36.0556 6.9725 35.2341 6.34035L34.0144 7.92541C34.771 8.50757 35.3869 9.06156 35.854 9.56816L37.3244 8.21244ZM35.2352 6.34117C34.1904 5.53502 33.9965 4.02801 34.7968 2.98795L33.2118 1.76827C31.7372 3.68457 32.0966 6.44558 34.0134 7.92459L35.2352 6.34117ZM34.7965 2.98835C35.6035 1.9407 37.1092 1.74676 38.1475 2.54934L39.3707 0.96695C37.4526 -0.515632 34.6903 -0.151089 33.2121 1.76787L34.7965 2.98835ZM38.1493 2.55068C42.375 5.80216 44.1289 9.43422 43.5826 12.7498L45.556 13.075C46.2701 8.7409 43.8996 4.45176 39.3689 0.965606L38.1493 2.55068ZM43.5828 12.7491C43.0606 15.9044 40.5053 18.6774 36.5131 20.0354L37.1572 21.9289C41.6601 20.3972 44.8842 17.1345 45.5559 13.0756L43.5828 12.7491ZM36.5129 20.0355C35.8723 20.2536 35.4833 20.8221 35.3817 21.394L37.3509 21.7437C37.3471 21.7652 37.3371 21.7935 37.3122 21.8248C37.287 21.8566 37.2378 21.9015 37.1574 21.9288L36.5129 20.0355ZM35.382 21.7453L36.0968 25.7312L38.0654 25.3782L37.3506 21.3923L35.382 21.7453Z" fill="#41B24F"/>
</svg>
